<svg 
    xmlns="http://www.w3.org/2000/svg"
    version="1.1" 
    xmlnsXlink="http://www.w3.org/1999/xlink" 
    xmlnsSvgjs="http://svgjs.dev/svgjs"  
    width="1000" 
    height="625" 
    viewBox="0 0 1000 625">
    <g transform="matrix(1,0,0,1,0,0)">
<svg 
    viewBox="0 0 512 320" 
    data-background-color="#ffffff" 
    preserveAspectRatio="xMidYMid meet" 
    height="625" 
    width="1000" 
    xmlns="http://www.w3.org/2000/svg" 
    xmlnsXlink="http://www.w3.org/1999/xlink">
    <g id="tight-bounds" transform="matrix(1,0,0,1,0,0)">
    <svg viewBox="0 0 512 320" height="320" width="512"><g><svg></svg></g><g><svg viewBox="0 0 512 320" height="320" width="512"><g><path xmlns="http://www.w3.org/2000/svg" d="M96 160c0-88.366 71.634-160 160-160 88.366 0 160 71.634 160 160 0 88.366-71.634 160-160 160-88.366 0-160-71.634-160-160zM256 312.148c84.029 0 152.148-68.119 152.148-152.148 0-84.029-68.119-152.148-152.148-152.148-84.029 0-152.148 68.119-152.148 152.148 0 84.029 68.119 152.148 152.148 152.148z" fill="#ee3e38" fill-rule="nonzero" stroke="none" stroke-width="1" stroke-linecap="butt" stroke-linejoin="miter" stroke-miterlimit="10" stroke-dasharray="" stroke-dashoffset="0" font-family="none" font-weight="none" font-size="none" text-anchor="none" style="mix-blend-mode: normal" data-fill-palette-color="tertiary"></path></g><g transform="matrix(1,0,0,1,172.3071001197385,80)"><svg viewBox="0 0 167.385799760523 160" height="160" width="167.385799760523"><g><svg viewBox="0 0 256 244.7041508813831" height="160" width="167.385799760523"><g transform="matrix(1,0,0,1,0,178.11875045615275)"><svg viewBox="0 0 256 66.58540042523033" height="66.58540042523033" width="256"><g id="textblocktransform"><svg viewBox="0 0 256 66.58540042523033" height="66.58540042523033" width="256" id="textblock"><g><svg viewBox="0 0 256 66.58540042523033" height="66.58540042523033" width="256"><g transform="matrix(1,0,0,1,0,0)"><svg width="256" viewBox="4.199999809265137 -36.29999923706055 141.08999633789062 36.70000076293945" height="66.58540042523033" data-palette-color="#ee3e38"><path d="M8.05-35.6L8.05-35.6 23.5-35.6Q28-35.6 28-33.35L28-33.35Q28-31.95 26.55-31.6L26.55-31.6Q25.4-32.95 22.9-32.95L22.9-32.95 8.55-32.95 8.55-19.65 20.1-19.65Q22.5-19.65 23.53-19.3 24.55-18.95 24.55-17.82 24.55-16.7 23.4-16.15L23.4-16.15Q22.3-16.9 19.75-16.9L19.75-16.9 8.55-16.9 8.55-2.55Q8.55-1.4 9.7-1.05L9.7-1.05Q8.9 0.4 7.55 0.4L7.55 0.4Q5.35 0.4 5.35-2.45L5.35-2.45 5.35-32.3Q5.35-33.45 4.2-33.9L4.2-33.9Q5.25-35.6 8.05-35.6ZM37.35-33.15L37.35-33.15 37.35-2.55Q37.35-1.45 38.5-1.05L38.5-1.05Q37.7 0.4 36.35 0.4L36.35 0.4Q34.15 0.4 34.15-2.45L34.15-2.45 34.15-33Q34.15-34.15 33-34.55L33-34.55Q33.75-36 35.1-36L35.1-36Q37.35-36 37.35-33.15ZM47.2-6.05L47.2-6.05 47.2-33Q47.2-34.15 46.05-34.55L46.05-34.55Q46.8-36 48.2-36L48.2-36Q50.4-36 50.4-33.15L50.4-33.15 50.4-5.95Q50.4-4.15 51.25-3.38 52.09-2.6 54.09-2.6L54.09-2.6 63.09-2.6Q65.65-2.6 66.8-4.7L66.8-4.7Q67.44-4.55 67.87-4 68.3-3.45 68.3-2.85L68.3-2.85Q68.3 0 63 0L63 0 54.25 0Q50.65 0 48.92-1.43 47.2-2.85 47.2-6.05ZM114.14-0.4L114.14-0.4Q113.24 0.4 112.24 0.4 111.24 0.4 110.77-0.28 110.29-0.95 110.04-2.55L110.04-2.55 108.04-30.1 95.99-1.65Q95.64-0.6 94.44-0.6 93.24-0.6 92.89-1.65L92.89-1.65 81.29-30.15 79.34-2.7Q79.19-1.05 78.67-0.33 78.14 0.4 77.17 0.4 76.19 0.4 75.29-0.4L75.29-0.4Q75.84-0.8 76.04-2.7L76.04-2.7 78.29-33Q78.34-34.5 77.64-35.2L77.64-35.2Q78.69-36 79.49-36L79.49-36Q81.94-36 83.19-33.05L83.19-33.05 94.49-5.45 106.24-33.05Q107.59-36 109.79-36L109.79-36Q110.64-36 111.89-35.2L111.89-35.2Q111.14-34.65 111.14-33.35L111.14-33.35Q111.14-33.2 111.14-33.05L111.14-33.05 113.44-2.7Q113.54-0.9 114.14-0.4ZM145.29-2.35L145.29-2.35Q145.29 0 139.39 0L139.39 0 123.64 0Q122.49 0 121.86-0.6 121.24-1.2 121.24-1.93 121.24-2.65 122.54-4.6L122.54-4.6 142.09-33.35Q133.79-32.7 127.86-32.7 121.94-32.7 121.94-35L121.94-35Q121.94-35.8 122.69-36.3L122.69-36.3Q124.39-35.6 127.59-35.6L127.59-35.6 142.94-35.6Q144.09-35.6 144.69-35 145.29-34.4 145.29-33.63 145.29-32.85 143.99-30.9L143.99-30.9 124.54-2.25 139.64-2.8Q142.94-2.9 144.49-3.95L144.49-3.95Q145.29-3.25 145.29-2.35Z" opacity="1" transform="matrix(1,0,0,1,0,0)" fill="#ee3e38" class="wordmark-text-0" data-fill-palette-color="primary" id="text-0"></path></svg></g></svg></g></svg></g></svg></g><g transform="matrix(1,0,0,1,54.659839762710305,0)"><svg viewBox="0 0 146.6803204745794 146.6803204745794" height="146.6803204745794" width="146.6803204745794"><g><svg></svg></g><g id="icon-0"><svg viewBox="0 0 146.6803204745794 146.6803204745794" height="146.6803204745794" width="146.6803204745794"><g><path d="M0 73.34c0-40.505 32.836-73.34 73.34-73.34 40.505 0 73.34 32.836 73.34 73.34 0 40.505-32.836 73.34-73.34 73.34-40.505 0-73.34-32.836-73.34-73.34zM73.34 140.676c37.188 0 67.335-30.147 67.336-67.336 0-37.188-30.147-67.335-67.336-67.335-37.188 0-67.335 30.147-67.335 67.335 0 37.188 30.147 67.335 67.335 67.336z" data-fill-palette-color="accent" fill="#ee3e38" stroke="transparent"></path><ellipse rx="72.6067586349168" ry="72.6067586349168" cx="73.3401602372897" cy="73.3401602372897" fill="#ee3e38" stroke="transparent" stroke-width="0" fill-opacity="1" data-fill-palette-color="accent"></ellipse></g><g transform="matrix(1,0,0,1,39.723872515764505,31.320325544789554)"><svg viewBox="0 0 67.23257544305038 84.03966938500028" height="84.03966938500028" width="67.23257544305038"><g><svg version="1.1" xmlns="http://www.w3.org/2000/svg" xmlnsXlink="http://www.w3.org/1999/xlink" x="0" y="0" viewBox="0 0 80.0009994506836 100" enable-background="new 0 0 80.001 100" xml:space="preserve" width="67.23257544305038" height="84.03966938500028" class="icon-s-0" data-fill-palette-color="quaternary" id="s-0"><path d="M64.001 40v2H64h-7v-8h-3.714C60.104 31.608 65 25.134 65 17.5 65 7.835 57.165 0 47.5 0c-6.378 0-11.941 3.423-15 8.52C29.441 3.423 23.878 0 17.5 0 7.835 0 0 7.835 0 17.5 0 25.134 4.896 31.608 11.714 34H8v11H2v6h6v11h20v2h-5v4h3.14l-22.6 32h4.908l22.588-32h3.104l-22.6 32h4.908l22.588-32H42v-4h-5v-2h20v-8h7 0.001v2h16V40H64.001zM23.286 34c3.882-1.361 7.129-4.046 9.214-7.52 2.085 3.474 5.332 6.158 9.214 7.52H23.286z" fill="#ffffff" data-fill-palette-color="quaternary"></path></svg></g></svg></g></svg></g></svg></g><g></g></svg></g></svg></g></svg></g><defs></defs></svg><rect width="512" height="320" fill="none" stroke="none" visibility="hidden"></rect></g></svg></g></svg>